# This file uses centimeters as units for non-parametric coordinates.

mtllib Door.mtl
g default
v -3.250884 6.195838 -0.250000
v -2.897330 5.753896 -0.250000
v -2.897330 5.753896 0.250000
v -3.250884 6.195838 0.250000
v -1.836670 7.963605 -0.250000
v -1.836659 7.963591 -0.250000
v -1.836681 7.963591 -0.250000
v -1.836659 7.963591 0.250000
v -1.836670 7.963605 0.250000
v -1.836681 7.963591 0.250000
v -1.629574 7.338591 0.250000
v -1.629574 7.338591 -0.250000
v -1.837500 7.962567 0.250000
v -1.837500 7.962567 -0.250000
v -1.837500 7.338591 -0.250000
v -1.837500 7.338591 0.250000
v -3.250000 -0.051409 0.250000
v -2.750000 -0.051409 0.250000
v -2.750000 5.938059 0.250000
v -2.897330 5.753896 0.250000
v -3.250000 6.194734 0.250000
v -3.250000 6.198591 -0.250000
v -3.248681 6.198591 -0.250000
v -3.250000 6.196943 -0.250000
v -3.248681 6.198591 0.250000
v -3.250000 6.198591 0.250000
v -3.250000 6.196943 0.250000
v -3.250000 6.194734 -0.250000
v -2.897330 5.753896 -0.250000
v -2.750000 5.938059 -0.250000
v -2.750000 -0.051409 -0.250000
v -3.250000 -0.051409 -0.250000
v -1.837500 7.338591 0.250000
v 1.837500 7.338591 0.250000
v -1.837500 7.963591 0.250000
v 1.837500 7.963591 0.250000
v -1.837500 7.963591 -0.250000
v 1.837500 7.963591 -0.250000
v -1.837500 7.338591 -0.250000
v 1.837500 7.338591 -0.250000
v 1.836651 7.963591 -0.250000
v 1.836662 7.963605 -0.250000
v 1.836673 7.963591 -0.250000
v 1.836673 7.963591 0.250000
v 1.836662 7.963605 0.250000
v 1.836651 7.963591 0.250000
v 1.629566 7.338591 -0.250000
v 2.897322 5.753896 -0.250000
v 2.897322 5.753896 0.250000
v 1.629566 7.338591 0.250000
v 1.837500 7.338591 0.250000
v 1.837500 7.338591 -0.250000
v 3.250875 6.195838 -0.250000
v 3.250875 6.195838 0.250000
v 1.837500 7.962557 0.250000
v 1.837500 7.962557 -0.250000
v 2.750000 -0.051409 -0.250000
v 3.250000 -0.051409 -0.250000
v 3.250000 -0.051409 0.250000
v 2.750000 -0.051409 0.250000
v 3.248673 6.198591 -0.250000
v 3.250000 6.198591 -0.250000
v 3.250000 6.196932 -0.250000
v 3.250000 6.196932 0.250000
v 3.250000 6.198591 0.250000
v 3.248673 6.198591 0.250000
v 2.750000 5.938049 -0.250000
v 2.750000 5.938049 0.250000
v 3.250000 6.194744 -0.250000
v 3.250000 6.194744 0.250000
v 2.897322 5.753896 0.250000
v 2.897322 5.753896 -0.250000
v -0.461816 -0.052335 0.050000
v -0.461816 3.652714 0.050000
v -0.461816 3.652714 -0.050000
v -0.461816 -0.052335 -0.050000
v 3.052292 -0.052335 -0.050000
v 3.052292 -0.052335 0.050000
v 0.972459 4.585735 -0.050000
v 0.972459 4.585735 0.050000
v 0.982281 4.585735 -0.050000
v 0.982281 4.585735 0.050000
v 3.052292 6.170703 0.050000
v 3.052292 6.170703 -0.050000
v 0.982281 7.447666 0.050000
v 0.982281 7.447666 -0.050000
v 2.030723 7.447666 0.050000
v 2.030723 7.447666 -0.050000
v 0.914779 4.630981 -0.050000
v 0.914779 7.448591 -0.050000
v 0.914779 7.448591 0.050000
v 0.914779 4.630981 0.050000
v -2.042743 7.448591 0.050000
v -2.042743 7.448591 -0.050000
v -0.518526 3.698591 -0.050000
v -0.518526 3.698591 0.050000
v -2.965211 6.295507 0.050000
v -2.965211 6.295507 -0.050000
v -0.529318 3.698591 -0.050000
v -0.529318 3.698591 0.050000
v -0.529318 3.691570 0.050000
v -0.529318 3.691570 -0.050000
v -0.529939 3.691167 -0.050000
v -0.529939 3.691167 0.050000
v -0.529318 3.689675 0.050000
v -0.529318 3.689675 -0.050000
v -0.529318 -0.051409 -0.050000
v -0.529318 -0.051409 0.050000
v -2.965211 -0.051409 -0.050000
v -2.965211 -0.051409 0.050000
vt 0.866399 0.121092
vt 0.866399 0.162759
vt 0.824801 0.162759
vt 0.824801 0.121092
vt 0.255841 0.000000
vt 0.255951 0.000000
vt 0.255951 0.041673
vt 0.255841 0.041673
vt 0.420037 0.899298
vt 0.420037 0.500000
vt 0.461704 0.500000
vt 0.461704 0.899298
vt 0.294026 0.500000
vt 0.335693 0.500000
vt 0.335693 0.916409
vt 0.294026 0.916409
vt 0.206200 0.000000
vt 0.247867 0.000000
vt 0.247867 0.041667
vt 0.206200 0.041667
vt 0.931719 0.000000
vt 0.973386 0.000000
vt 0.973386 0.041667
vt 0.931719 0.041667
vt 0.996228 0.145025
vt 0.996228 0.186691
vt 0.954630 0.186691
vt 0.954630 0.145025
vt 0.462041 0.899297
vt 0.462041 0.500000
vt 0.503708 0.500000
vt 0.503708 0.899297
vt 0.824801 0.266777
vt 0.866467 0.266777
vt 0.866467 0.683187
vt 0.824801 0.683187
vt 0.248204 0.000000
vt 0.248314 0.000000
vt 0.248314 0.041690
vt 0.248204 0.041690
vt 0.752945 0.500000
vt 0.752945 0.747003
vt 0.744612 0.747003
vt 0.744612 0.500000
vt 0.943175 0.746939
vt 0.943175 0.317692
vt 0.951797 0.317692
vt 0.951797 0.746939
vt 0.951797 0.835020
vt 0.943175 0.835020
vt 0.787312 0.500000
vt 0.787312 0.690795
vt 0.778978 0.690795
vt 0.778978 0.500000
vt 0.798767 0.500000
vt 0.798767 0.687840
vt 0.790434 0.687840
vt 0.790434 0.500000
vt 0.263946 0.008333
vt 0.263478 0.008333
vt 0.263478 0.000000
vt 0.263946 0.000000
vt 0.733156 0.749510
vt 0.733156 0.749411
vt 0.741490 0.749411
vt 0.741490 0.749510
vt 0.741490 0.500000
vt 0.733156 0.500000
vt 0.908808 0.756630
vt 0.908808 0.320236
vt 0.917403 0.320236
vt 0.917403 0.756630
vt 0.917403 0.835912
vt 0.908808 0.835912
vt 0.223527 0.041667
vt 0.223527 0.083333
vt 0.206200 0.083333
vt 0.206200 0.041667
vt 0.000000 0.042329
vt 0.000000 0.000000
vt 0.000002 0.000000
vt 0.000002 0.042329
vt 0.259769 0.041661
vt 0.259660 0.041661
vt 0.259660 0.000000
vt 0.259769 0.000000
vt 0.889716 0.041667
vt 0.889716 0.000000
vt 0.931382 0.000000
vt 0.931382 0.041667
vt 0.504045 0.806250
vt 0.504045 0.500000
vt 0.545712 0.500000
vt 0.545712 0.806250
vt 0.588052 0.806250
vt 0.588052 0.500000
vt 0.629719 0.500000
vt 0.629719 0.806250
vt 0.973723 0.041667
vt 0.973723 0.000000
vt 0.991051 0.000000
vt 0.991051 0.041667
vt 0.000000 0.041566
vt 0.000000 0.000000
vt 0.000002 0.000000
vt 0.000002 0.041566
vt 0.847712 0.041667
vt 0.847712 0.000000
vt 0.889379 0.000000
vt 0.889379 0.041667
vt 0.252022 0.000000
vt 0.252133 0.000000
vt 0.252133 0.041677
vt 0.252022 0.041677
vt 0.721701 0.792842
vt 0.721701 0.500000
vt 0.730034 0.500000
vt 0.730034 0.792842
vt 0.680904 0.640935
vt 0.680904 0.767789
vt 0.672060 0.767789
vt 0.672060 0.640935
vt 0.680904 0.640066
vt 0.672060 0.640066
vt 0.206200 0.216592
vt 0.206200 0.129223
vt 0.214534 0.129223
vt 0.214534 0.216592
vt 0.756067 0.746459
vt 0.756067 0.500000
vt 0.764401 0.500000
vt 0.764401 0.746459
vt 0.683515 0.766830
vt 0.683515 0.640066
vt 0.692360 0.640066
vt 0.692360 0.766830
vt 0.683515 0.767784
vt 0.692360 0.767784
vt 0.267297 0.000000
vt 0.267351 0.000000
vt 0.267351 0.008846
vt 0.267297 0.008846
vt 0.767523 0.702991
vt 0.767523 0.500000
vt 0.775856 0.500000
vt 0.775856 0.702991
vt 0.000000 0.000001
vt 0.000001 0.000000
vt 0.000001 0.000002
vt 0.000000 0.000000
vt 0.000001 0.000001
vt 0.000000 0.000002
vt 0.341309 0.041598
vt 0.235663 0.147245
vt 0.206200 0.117782
vt 0.323982 0.000000
vt 0.323982 0.041598
vt 0.775160 0.029463
vt 0.804623 0.000000
vt 0.910269 0.105646
vt 0.892942 0.105646
vt 0.892942 0.147245
vt 0.378034 0.500000
vt 0.419700 0.500000
vt 0.419700 0.899298
vt 0.407423 0.887020
vt 0.378034 0.916409
vt 0.278752 0.000110
vt 0.278752 0.000000
vt 0.278862 0.000110
vt 0.282681 0.000000
vt 0.282681 0.000110
vt 0.282571 0.000110
vt 0.377697 0.517097
vt 0.377697 0.916394
vt 0.336030 0.916394
vt 0.336030 0.499985
vt 0.365419 0.529374
vt 0.630056 0.806250
vt 0.630056 0.500000
vt 0.671723 0.500000
vt 0.671723 0.806250
vt 0.546049 0.806250
vt 0.546049 0.500000
vt 0.587715 0.500000
vt 0.587715 0.806250
vt 0.000001 0.000002
vt 0.000000 0.000001
vt 0.000001 0.000000
vt 0.000000 0.000000
vt 0.000001 0.000001
vt 0.000000 0.000002
vt 0.842129 0.183190
vt 0.959910 0.300972
vt 0.930447 0.330434
vt 0.824801 0.224788
vt 0.842129 0.224788
vt 0.968632 0.072112
vt 0.998095 0.101575
vt 0.880314 0.219356
vt 0.880314 0.177759
vt 0.862986 0.177759
vt 0.271115 0.000111
vt 0.271115 0.000000
vt 0.271226 0.000000
vt 0.274934 0.000000
vt 0.275044 0.000000
vt 0.275044 0.000111
vt 0.996297 0.289108
vt 0.996297 0.705518
vt 0.954630 0.705518
vt 0.954630 0.306221
vt 0.966907 0.318498
vt 0.866804 0.308781
vt 0.908471 0.308781
vt 0.908471 0.725191
vt 0.879081 0.695801
vt 0.866804 0.708078
vt 0.651116 0.000000
vt 0.738486 0.000000
vt 0.823617 0.085131
vt 0.823617 0.500000
vt 0.530775 0.500000
vt 0.530775 0.252997
vt 0.650297 0.190795
vt 0.651116 0.190795
vt 0.000000 0.500000
vt 0.292842 0.500000
vt 0.292842 0.914869
vt 0.207712 1.000000
vt 0.120341 1.000000
vt 0.120341 0.809205
vt 0.119523 0.809205
vt 0.000000 0.747003
vt 0.000000 0.000000
vt 0.202991 0.000000
vt 0.202991 0.249406
vt 0.202939 0.249505
vt 0.202991 0.249532
vt 0.202991 0.250000
vt 0.203890 0.250000
vt 0.323332 0.312159
vt 0.323332 0.500000
vt 0.076872 0.500000
vt 0.000000 0.423128
vt 0.401447 0.000000
vt 0.647907 0.000000
vt 0.647907 0.187841
vt 0.528465 0.250000
vt 0.527565 0.250000
vt 0.527565 0.250468
vt 0.527514 0.250495
vt 0.527565 0.250594
vt 0.527565 0.500000
vt 0.324574 0.500000
vt 0.324574 0.076872
vt 0.259659 0.035037
vt 0.259659 0.000000
vt 0.309210 0.000000
vt 0.309210 0.035037
vt 0.309210 0.125635
vt 0.259659 0.125635
vt 0.309210 0.175104
vt 0.259659 0.175104
vt 0.000000 0.000000
vt 0.000001 0.000000
vt 0.000001 0.047755
vt 0.000000 0.047755
vt 0.000000 0.047755
vt 0.000000 0.000000
vt 0.309883 0.175104
vt 0.309883 0.224655
vt 0.274934 0.224655
vt 0.274934 0.175104
vt 0.289534 0.224655
vt 0.289534 0.175104
vt 0.924082 0.091225
vt 0.924082 0.041667
vt 0.924213 0.041667
vt 0.924213 0.091225
vt 0.236748 0.265703
vt 0.236748 0.140067
vt 0.286299 0.140067
vt 0.286299 0.265703
vt 0.236748 0.175104
vt 0.286299 0.175104
vt 0.000000 0.000000
vt 0.000001 0.000000
vt 0.000001 0.049431
vt 0.000000 0.049431
vt 0.000000 0.049431
vt 0.000000 0.000000
vt 0.672060 0.500000
vt 0.721610 0.500000
vt 0.721610 0.640066
vt 0.672060 0.640066
vt 0.917704 0.041667
vt 0.917704 0.091217
vt 0.932303 0.091217
vt 0.932303 0.041667
vt 0.897353 0.091217
vt 0.897353 0.041667
vt 0.920264 0.091229
vt 0.920264 0.041667
vt 0.920395 0.041667
vt 0.920395 0.091229
vn -0.780869 -0.624695 0.000000
vn -0.780869 -0.624695 0.000000
vn -0.780869 -0.624695 0.000000
vn -0.780869 -0.624695 0.000000
vn 0.000000 0.000000 -1.000000
vn 0.000000 0.000000 -0.000000
vn 0.000000 0.000000 -0.000000
vn 0.000000 0.000000 0.000000
vn 0.000000 0.000000 1.000000
vn 0.000000 0.000000 0.000000
vn 0.780869 -0.624695 0.000000
vn 0.780869 -0.624695 0.000000
vn 0.780869 -0.624695 0.000000
vn 0.780869 -0.624695 0.000000
vn -0.780869 0.624695 0.000000
vn -0.780869 0.624695 0.000000
vn -0.780869 0.624695 0.000000
vn -0.780869 0.624695 0.000000
vn 0.000000 1.000000 0.000000
vn 0.000000 1.000000 0.000000
vn 0.000000 1.000000 0.000000
vn 0.000000 1.000000 0.000000
vn 1.000000 0.000000 0.000000
vn 1.000000 0.000000 0.000000
vn 1.000000 0.000000 0.000000
vn 1.000000 0.000000 0.000000
vn -0.780869 0.624695 0.000000
vn -0.780869 0.624695 0.000000
vn -0.780869 0.624695 0.000000
vn -0.780869 0.624695 0.000000
vn 0.000000 -1.000000 0.000000
vn 0.000000 -1.000000 0.000000
vn 0.000000 -1.000000 0.000000
vn 0.000000 -1.000000 0.000000
vn 0.780869 0.624695 0.000000
vn 0.780869 0.624695 0.000000
vn 0.780869 0.624695 0.000000
vn 0.780869 0.624695 0.000000
vn 0.000000 0.000000 -1.000000
vn 0.000000 0.000000 -1.000000
vn 0.000000 0.000000 -1.000000
vn 0.000000 0.000000 -1.000000
vn 0.000000 0.000000 -1.000000
vn 0.000000 0.000000 1.000000
vn 0.000000 0.000000 1.000000
vn 0.000000 0.000000 1.000000
vn 0.000000 0.000000 1.000000
vn 0.000000 0.000000 1.000000
vn 0.000000 0.000000 1.000000
vn 0.000000 0.000000 1.000000
vn 0.000000 0.000000 1.000000
vn 0.000000 0.000000 1.000000
vn 0.000000 0.000000 1.000000
vn 0.000000 0.000000 -1.000000
vn 0.000000 0.000000 -1.000000
vn 0.000000 0.000000 -1.000000
vn 0.000000 0.000000 1.000000
vn 0.000000 0.000000 1.000000
vn 0.000000 0.000000 1.000000
vn 0.780869 0.624695 0.000000
vn 0.780869 0.624695 0.000000
vn 0.780869 0.624695 0.000000
vn 0.780869 0.624695 0.000000
vn -1.000000 0.000000 0.000000
vn -1.000000 0.000000 0.000000
vn -1.000000 0.000000 0.000000
vn -1.000000 0.000000 0.000000
vn 0.780869 -0.624695 0.000000
vn 0.780869 -0.624695 0.000000
vn 0.780869 -0.624695 0.000000
vn 0.780869 -0.624695 0.000000
vn 0.000000 1.000000 0.000000
vn 0.000000 1.000000 0.000000
vn 0.000000 1.000000 0.000000
vn 0.000000 1.000000 0.000000
vn -0.780869 0.624695 0.000000
vn -0.780869 0.624695 0.000000
vn -0.780869 0.624695 0.000000
vn -0.780869 0.624695 0.000000
vn 1.000000 0.000000 0.000000
vn 1.000000 0.000000 0.000000
vn 1.000000 0.000000 0.000000
vn 1.000000 0.000000 0.000000
vn 0.000000 0.000000 -1.000000
vn 0.000000 0.000000 -1.000000
vn 0.000000 0.000000 -1.000000
vn 0.000000 0.000000 -1.000000
vn 0.000000 0.000000 -1.000000
vn -1.000000 0.000000 0.000000
vn -1.000000 0.000000 0.000000
vn -1.000000 0.000000 0.000000
vn -1.000000 0.000000 0.000000
vn 0.000000 -1.000000 0.000000
vn 0.000000 -1.000000 0.000000
vn 0.000000 -1.000000 0.000000
vn 0.000000 -1.000000 0.000000
vn 0.000000 0.000000 1.000000
vn 0.000000 0.000000 1.000000
vn 0.000000 0.000000 1.000000
vn 0.000000 0.000000 1.000000
vn 0.000000 1.000000 0.000000
vn 0.000000 1.000000 0.000000
vn 0.000000 1.000000 0.000000
vn 0.000000 1.000000 0.000000
vn 0.000000 0.000000 -1.000000
vn 0.000000 0.000000 -1.000000
vn 0.000000 0.000000 -1.000000
vn 0.000000 0.000000 -1.000000
vn 0.000000 -1.000000 0.000000
vn 0.000000 -1.000000 0.000000
vn 0.000000 -1.000000 0.000000
vn 0.000000 -1.000000 0.000000
vn 1.000000 0.000000 0.000000
vn 1.000000 0.000000 0.000000
vn 1.000000 0.000000 0.000000
vn 1.000000 0.000000 0.000000
vn -1.000000 0.000000 0.000000
vn -1.000000 0.000000 0.000000
vn -1.000000 0.000000 0.000000
vn -1.000000 0.000000 0.000000
vn 0.000000 0.000000 -0.000000
vn 0.000000 0.000000 -1.000000
vn 0.000000 0.000000 -0.000000
vn 0.000000 0.000000 0.000000
vn 0.000000 0.000000 1.000000
vn 0.000000 0.000000 0.000000
vn -0.780869 -0.624695 0.000000
vn -0.780869 -0.624695 0.000000
vn -0.780869 -0.624695 0.000000
vn -0.780869 -0.624695 0.000000
vn 0.000000 1.000000 0.000000
vn 0.000000 1.000000 0.000000
vn 0.000000 1.000000 0.000000
vn 0.000000 1.000000 0.000000
vn 0.780869 -0.624695 0.000000
vn 0.780869 -0.624695 0.000000
vn 0.780869 -0.624695 0.000000
vn 0.780869 -0.624695 0.000000
vn -1.000000 0.000000 0.000000
vn -1.000000 0.000000 0.000000
vn -1.000000 0.000000 0.000000
vn -1.000000 0.000000 0.000000
vn -0.780869 0.624695 0.000000
vn -0.780869 0.624695 0.000000
vn -0.780869 0.624695 0.000000
vn -0.780869 0.624695 0.000000
vn 0.000000 -1.000000 0.000000
vn 0.000000 -1.000000 0.000000
vn 0.000000 -1.000000 0.000000
vn 0.000000 -1.000000 0.000000
vn 0.780869 0.624695 0.000000
vn 0.780869 0.624695 0.000000
vn 0.780869 0.624695 0.000000
vn 0.780869 0.624695 0.000000
vn 0.780869 0.624695 0.000000
vn 0.780869 0.624695 0.000000
vn 0.780869 0.624695 0.000000
vn 0.780869 0.624695 0.000000
vn 0.000000 0.000000 -1.000000
vn 0.000000 0.000000 -1.000000
vn 0.000000 0.000000 -1.000000
vn 0.000000 0.000000 -1.000000
vn 0.000000 0.000000 -1.000000
vn 0.000000 0.000000 1.000000
vn 0.000000 0.000000 1.000000
vn 0.000000 0.000000 1.000000
vn 0.000000 0.000000 1.000000
vn 0.000000 0.000000 1.000000
vn 0.000000 -1.000000 0.000000
vn 0.000000 -1.000000 0.000000
vn 0.000000 -1.000000 0.000000
vn 0.000000 -1.000000 0.000000
vn 0.000000 0.000000 -1.000000
vn 0.000000 0.000000 -1.000000
vn 0.000000 0.000000 -1.000000
vn 0.000000 0.000000 1.000000
vn 0.000000 0.000000 1.000000
vn 0.000000 0.000000 1.000000
vn -1.000000 0.000000 0.000000
vn -1.000000 0.000000 0.000000
vn -1.000000 0.000000 0.000000
vn -1.000000 0.000000 0.000000
vn 1.000000 0.000000 0.000000
vn 1.000000 0.000000 0.000000
vn 1.000000 0.000000 0.000000
vn 1.000000 0.000000 0.000000
vn 0.780869 0.624695 0.000000
vn 0.780869 0.624695 0.000000
vn 0.780869 0.624695 0.000000
vn 0.780869 0.624695 0.000000
vn -0.780869 0.624695 0.000000
vn -0.780869 0.624695 0.000000
vn -0.780869 0.624695 0.000000
vn -0.780869 0.624695 0.000000
vn -0.780869 -0.624695 0.000000
vn -0.780869 -0.624695 0.000000
vn -0.780869 -0.624695 0.000000
vn -0.780869 -0.624695 0.000000
vn 1.000000 0.000000 0.000000
vn 1.000000 0.000000 0.000000
vn 1.000000 0.000000 0.000000
vn 1.000000 0.000000 0.000000
vn 0.000000 1.000000 0.000000
vn 0.000000 1.000000 0.000000
vn 0.000000 1.000000 0.000000
vn 0.000000 1.000000 0.000000
vn 0.000000 0.000000 -1.000000
vn 0.000000 0.000000 -1.000000
vn 0.000000 0.000000 -1.000000
vn 0.000000 0.000000 -1.000000
vn 0.000000 0.000000 -1.000000
vn 0.000000 0.000000 1.000000
vn 0.000000 0.000000 1.000000
vn 0.000000 0.000000 1.000000
vn 0.000000 0.000000 1.000000
vn 0.000000 0.000000 1.000000
vn -1.000000 0.000000 0.000000
vn -1.000000 0.000000 0.000000
vn -1.000000 0.000000 0.000000
vn -1.000000 0.000000 0.000000
vn 0.000000 -1.000000 0.000000
vn 0.000000 -1.000000 0.000000
vn 0.000000 -1.000000 0.000000
vn 0.000000 -1.000000 0.000000
vn -0.542679 0.839940 0.000000
vn -0.545293 0.838245 0.000000
vn -0.545293 0.838245 0.000000
vn -0.542679 0.839940 0.000000
vn 0.000000 1.000000 0.000000
vn 0.000000 1.000000 0.000000
vn 1.000000 0.000000 0.000000
vn 1.000000 0.000000 0.000000
vn 1.000000 0.000000 0.000000
vn 1.000000 0.000000 0.000000
vn -1.000000 0.000000 0.000000
vn -1.000000 0.000000 0.000000
vn -1.000000 0.000000 0.000000
vn -1.000000 0.000000 0.000000
vn 0.000000 1.000000 0.000000
vn 0.000000 1.000000 0.000000
vn 0.000000 1.000000 0.000000
vn 0.000000 1.000000 0.000000
vn 0.780869 0.624695 0.000000
vn 0.780869 0.624695 0.000000
vn 0.780869 0.624695 0.000000
vn 0.780869 0.624695 0.000000
vn -0.000000 0.000000 -1.000000
vn -0.000000 0.000000 -1.000000
vn -0.000000 0.000000 -1.000000
vn -0.000000 0.000000 -1.000000
vn -0.000000 0.000000 -1.000000
vn -0.000000 0.000000 -1.000000
vn -0.000000 0.000000 -1.000000
vn -0.000000 0.000000 -1.000000
vn -0.000000 0.000000 1.000000
vn -0.000000 0.000000 1.000000
vn -0.000000 0.000000 1.000000
vn -0.000000 0.000000 1.000000
vn -0.000000 0.000000 1.000000
vn -0.000000 0.000000 1.000000
vn -0.000000 0.000000 1.000000
vn -0.000000 0.000000 1.000000
vn 1.000000 0.000000 0.000000
vn 1.000000 0.000000 0.000000
vn 1.000000 0.000000 0.000000
vn 1.000000 0.000000 0.000000
vn 0.000000 1.000000 0.000000
vn 0.000000 1.000000 0.000000
vn 0.000000 1.000000 0.000000
vn 0.000000 1.000000 0.000000
vn 0.542420 -0.840107 0.000000
vn 0.545293 -0.838245 0.000000
vn 0.545293 -0.838245 0.000000
vn 0.542420 -0.840107 0.000000
vn -0.780869 0.624695 0.000000
vn -0.780869 0.624695 0.000000
vn -0.780869 0.624695 0.000000
vn -0.780869 0.624695 0.000000
vn 0.000000 -1.000000 0.000000
vn 0.000000 -1.000000 0.000000
vn 1.000000 0.000000 0.000000
vn 1.000000 0.000000 0.000000
vn 1.000000 0.000000 0.000000
vn 1.000000 0.000000 0.000000
vn 0.545239 -0.838280 0.000000
vn 0.545239 -0.838280 0.000000
vn 0.545239 -0.838280 0.000000
vn 0.545239 -0.838280 0.000000
vn 0.923191 0.384340 0.000000
vn 1.000000 0.000166 0.000000
vn 1.000000 0.000166 0.000000
vn 0.923191 0.384340 0.000000
vn 1.000000 0.000000 0.000000
vn 1.000000 0.000000 0.000000
vn -1.000000 0.000000 0.000000
vn -1.000000 0.000000 0.000000
vn -1.000000 0.000000 0.000000
vn -1.000000 0.000000 0.000000
vn 0.000000 -1.000000 0.000000
vn 0.000000 -1.000000 0.000000
vn 0.000000 -1.000000 0.000000
vn 0.000000 -1.000000 0.000000
vn 0.000000 0.000000 1.000000
vn 0.000000 0.000000 1.000000
vn 0.000000 0.000000 1.000000
vn 0.000000 0.000000 1.000000
vn 0.000000 0.000000 1.000000
vn 0.000000 0.000000 1.000000
vn 0.000000 0.000000 1.000000
vn 0.000000 0.000000 1.000000
vn 0.000000 0.000000 1.000000
vn 0.000000 0.000000 1.000000
vn 0.000000 0.000000 1.000000
vn 0.000000 0.000000 -1.000000
vn 0.000000 0.000000 -1.000000
vn 0.000000 0.000000 -1.000000
vn 0.000000 0.000000 -1.000000
vn 0.000000 0.000000 -1.000000
vn 0.000000 0.000000 -1.000000
vn 0.000000 0.000000 -1.000000
vn 0.000000 0.000000 -1.000000
vn 0.000000 0.000000 -1.000000
vn 0.000000 0.000000 -1.000000
vn 0.000000 0.000000 -1.000000
s off
g polySurface13
usemtl initialShadingGroup
f 1/257/1 2/258/2 3/259/3 4/260/4
f 5/147/5 6/148/6 7/149/7
f 8/150/8 9/151/9 10/152/10
f 11/261/11 3/259/12 2/258/13 12/262/14
f 1/257/15 4/260/16 13/263/17 14/264/18
f 11/75/19 12/76/20 15/77/21 16/78/22
f 14/1/23 13/2/24 16/3/25 15/4/26
f 10/265/27 9/266/28 5/267/29 7/268/30
f 10/79/31 7/80/32 6/81/33 8/82/34
f 6/269/35 5/267/36 9/266/37 8/270/38
f 12/153/39 2/154/40 1/155/41 14/156/42 15/157/43
f 4/158/44 3/159/45 11/160/46 16/161/47 13/162/48
f 17/163/49 18/164/50 19/165/51 20/166/52 21/167/53
f 22/168/54 23/169/55 24/170/56
f 25/171/57 26/172/58 27/173/59
f 28/271/60 21/272/61 20/273/62 29/274/63
f 27/5/64 26/6/65 22/7/66 24/8/67
f 27/277/68 24/278/69 23/279/70 25/280/71
f 23/83/72 22/84/73 26/85/74 25/86/75
f 19/275/76 30/276/77 29/274/78 20/273/79
f 19/9/80 18/10/81 31/11/82 30/12/83
f 30/174/84 31/175/85 32/176/86 28/177/87 29/178/88
f 32/13/89 17/14/90 21/15/91 28/16/92
f 32/87/93 31/88/94 18/89/95 17/90/96
f 33/179/97 34/180/98 36/181/99 35/182/100
f 35/91/101 36/92/102 38/93/103 37/94/104
f 37/183/105 38/184/106 40/185/107 39/186/108
f 39/95/109 40/96/110 34/97/111 33/98/112
f 34/17/113 40/18/114 38/19/115 36/20/116
f 39/21/117 33/22/118 35/23/119 37/24/120
f 41/187/121 42/188/122 43/189/123
f 44/190/124 45/191/125 46/192/126
f 47/281/127 48/282/128 49/283/129 50/284/130
f 47/99/131 50/100/132 51/101/133 52/102/134
f 48/282/135 53/285/136 54/286/137 49/283/138
f 55/25/139 56/26/140 52/27/141 51/28/142
f 46/287/143 45/288/144 42/289/145 41/290/146
f 46/103/147 41/104/148 43/105/149 44/106/150
f 54/293/151 53/294/152 56/295/153 55/296/154
f 43/291/155 42/289/156 45/288/157 44/292/158
f 56/193/159 53/194/160 48/195/161 47/196/162 52/197/163
f 49/198/164 54/199/165 55/200/166 51/201/167 50/202/168
f 57/107/169 58/108/170 59/109/171 60/110/172
f 61/203/173 62/204/174 63/205/175
f 64/206/176 65/207/177 66/208/178
f 67/29/179 57/30/180 60/31/181 68/32/182
f 59/33/183 58/34/184 69/35/185 70/36/186
f 67/297/187 68/298/188 71/299/189 72/300/190
f 70/301/191 69/302/192 72/300/193 71/299/194
f 63/303/195 64/304/196 66/305/197 61/306/198
f 63/37/199 62/38/200 65/39/201 64/40/202
f 66/111/203 65/112/204 62/113/205 61/114/206
f 69/209/207 58/210/208 57/211/209 67/212/210 72/213/211
f 60/214/212 59/215/213 70/216/214 71/217/215 68/218/216
f 73/41/217 74/42/218 75/43/219 76/44/220
f 76/115/221 77/116/222 78/117/223 73/118/224
s 1
f 79/119/225 75/120/226 74/121/227 80/122/228
f 81/123/229 79/119/225 80/122/228 82/124/230
s off
f 83/45/231 78/46/232 77/47/233 84/48/234
f 82/51/235 85/52/236 86/53/237 81/54/238
f 85/125/239 87/126/240 88/127/241 86/128/242
f 83/45/243 84/48/244 88/49/245 87/50/246
f 86/219/247 88/220/248 84/221/249 77/222/250 76/223/251 75/224/252 79/225/253 81/226/254
f 73/227/255 78/228/256 83/229/257 87/230/258 85/231/259 82/232/260 80/233/261 74/234/262
f 89/55/263 90/56/264 91/57/265 92/58/266
f 93/129/267 91/130/268 90/131/269 94/132/270
s 2
f 95/133/271 89/134/272 92/135/273 96/136/274
s off
f 97/72/275 93/73/276 94/74/277 98/69/278
s 2
f 99/137/279 95/133/271 96/136/274 100/138/280
s off
f 100/59/281 101/60/282 102/61/283 99/62/284
f 103/139/285 102/140/286 101/141/287 104/142/288
s 3
f 104/63/289 105/64/290 106/65/291 103/66/292
f 107/67/293 106/65/291 105/64/290 108/68/294
s off
f 98/69/295 109/70/296 110/71/297 97/72/298
f 109/143/299 107/144/300 108/145/301 110/146/302
f 110/235/303 108/236/304 105/237/305 104/238/306 101/239/307 100/240/308 96/241/309 92/242/310 91/243/311 93/244/312 97/245/313
f 94/246/314 90/247/315 89/248/316 95/249/317 99/250/318 102/251/319 103/252/320 106/253/321 107/254/322 109/255/323 98/256/324
