# This file uses centimeters as units for non-parametric coordinates.

mtllib Panel 1.mtl
g default
v -0.500000 -0.050000 0.250025
v -0.250025 -0.050000 0.500000
v -0.375013 -0.050000 0.466510
v -0.466510 -0.050000 0.375013
v -0.500000 0.050000 0.250025
v -0.466510 0.050000 0.375013
v -0.375013 0.050000 0.466510
v -0.250025 0.050000 0.500000
v 0.500000 -0.050000 0.250025
v 0.466510 -0.050000 0.375013
v 0.375013 -0.050000 0.466510
v 0.250025 -0.050000 0.500000
v 0.500000 0.050000 0.250025
v 0.250025 0.050000 0.500000
v 0.375013 0.050000 0.466510
v 0.466510 0.050000 0.375013
v -0.375013 0.050000 -0.466510
v -0.466510 0.050000 -0.375013
v -0.500000 0.050000 -0.250025
v -0.250025 0.050000 -0.500000
v -0.500000 -0.050000 -0.250025
v -0.466510 -0.050000 -0.375013
v -0.375013 -0.050000 -0.466510
v -0.250025 -0.050000 -0.500000
v 0.466510 0.050000 -0.375013
v 0.375013 0.050000 -0.466510
v 0.250025 0.050000 -0.500000
v 0.500000 0.050000 -0.250025
v 0.500000 -0.050000 -0.250025
v 0.250025 -0.050000 -0.500000
v 0.375013 -0.050000 -0.466510
v 0.466510 -0.050000 -0.375013
vt 0.430724 0.857369
vt 0.381109 0.857369
vt 0.381109 0.609272
vt 0.430724 0.609272
vt 0.381109 0.919380
vt 0.430724 0.919380
vt 0.430724 0.547261
vt 0.381109 0.547261
vt 0.381109 0.964776
vt 0.430724 0.964776
vt 0.430724 0.501865
vt 0.381109 0.501865
vt 0.375376 0.857369
vt 0.325762 0.857369
vt 0.325762 0.609272
vt 0.375376 0.609272
vt 0.375376 0.919380
vt 0.325762 0.919380
vt 0.325762 0.547261
vt 0.375376 0.547261
vt 0.375376 0.964776
vt 0.325762 0.964776
vt 0.325762 0.501865
vt 0.375376 0.501865
vt 0.481389 0.436123
vt 0.435993 0.481519
vt 0.373981 0.498135
vt 0.125885 0.498135
vt 0.063873 0.481519
vt 0.018477 0.436123
vt 0.001861 0.374112
vt 0.001861 0.126015
vt 0.018477 0.064004
vt 0.063873 0.018608
vt 0.125885 0.001992
vt 0.373981 0.001992
vt 0.435993 0.018608
vt 0.481389 0.064004
vt 0.498005 0.126015
vt 0.498005 0.374112
vt 0.932600 0.625888
vt 0.932600 0.873985
vt 0.915984 0.935996
vt 0.870588 0.981392
vt 0.808577 0.998008
vt 0.560480 0.998008
vt 0.498468 0.981392
vt 0.453073 0.935996
vt 0.436457 0.873985
vt 0.436457 0.625888
vt 0.453073 0.563877
vt 0.498468 0.518481
vt 0.560480 0.501865
vt 0.808577 0.501865
vt 0.870588 0.518481
vt 0.915984 0.563877
vt 0.320029 0.811973
vt 0.270414 0.811973
vt 0.270414 0.563877
vt 0.320029 0.563877
vt 0.270414 0.873985
vt 0.320029 0.873985
vt 0.270414 0.501865
vt 0.320029 0.501865
vt 0.264681 0.811973
vt 0.215067 0.811973
vt 0.215067 0.563877
vt 0.264681 0.563877
vt 0.215067 0.873985
vt 0.264681 0.873985
vt 0.215067 0.501865
vt 0.264681 0.501865
vn -0.053505 0.000000 0.998568
vn -0.053505 0.000000 0.998568
vn 0.053505 0.000000 0.998568
vn 0.053505 0.000000 0.998568
vn -0.053505 0.000000 -0.998568
vn -0.053505 0.000000 -0.998568
vn 0.053505 0.000000 -0.998568
vn 0.053505 0.000000 -0.998568
vn 0.998568 0.000000 0.053505
vn 0.998568 0.000000 0.053505
vn 0.998568 0.000000 -0.053505
vn 0.998568 0.000000 -0.053505
vn -0.998568 0.000000 -0.053505
vn -0.998568 0.000000 -0.053505
vn -0.998568 0.000000 0.053505
vn -0.998568 0.000000 0.053505
vn -0.866025 0.000000 0.500000
vn -0.866025 0.000000 0.500000
vn -0.500000 0.000000 0.866026
vn -0.500000 0.000000 0.866026
vn 0.500000 0.000000 0.866026
vn 0.500000 0.000000 0.866026
vn 0.866025 0.000000 0.500000
vn 0.866025 0.000000 0.500000
vn -0.866025 0.000000 -0.500000
vn -0.866025 0.000000 -0.500000
vn -0.500000 0.000000 -0.866026
vn -0.500000 0.000000 -0.866026
vn 0.500000 0.000000 -0.866026
vn 0.500000 0.000000 -0.866026
vn 0.866025 0.000000 -0.500000
vn 0.866025 0.000000 -0.500000
vn 0.000000 1.000000 0.000000
vn 0.000000 1.000000 0.000000
vn 0.000000 1.000000 0.000000
vn 0.000000 1.000000 0.000000
vn 0.000000 1.000000 0.000000
vn 0.000000 1.000000 0.000000
vn 0.000000 1.000000 0.000000
vn 0.000000 1.000000 0.000000
vn 0.000000 1.000000 0.000000
vn 0.000000 1.000000 0.000000
vn 0.000000 1.000000 0.000000
vn 0.000000 1.000000 0.000000
vn 0.000000 1.000000 0.000000
vn 0.000000 1.000000 0.000000
vn 0.000000 1.000000 0.000000
vn 0.000000 1.000000 0.000000
vn 0.000000 -1.000000 0.000000
vn 0.000000 -1.000000 0.000000
vn 0.000000 -1.000000 0.000000
vn 0.000000 -1.000000 0.000000
vn 0.000000 -1.000000 0.000000
vn 0.000000 -1.000000 0.000000
vn 0.000000 -1.000000 0.000000
vn 0.000000 -1.000000 0.000000
vn 0.000000 -1.000000 0.000000
vn 0.000000 -1.000000 0.000000
vn 0.000000 -1.000000 0.000000
vn 0.000000 -1.000000 0.000000
vn 0.000000 -1.000000 0.000000
vn 0.000000 -1.000000 0.000000
vn 0.000000 -1.000000 0.000000
vn 0.000000 -1.000000 0.000000
s 1
g pCube1
usemtl initialShadingGroup
f 8/57/1 2/58/2 12/59/3 14/60/4
f 24/65/5 20/66/6 27/67/7 30/68/8
f 13/1/9 9/2/10 29/3/11 28/4/12
f 19/13/13 21/14/14 1/15/15 5/16/16
f 1/15/15 4/19/17 6/20/18 5/16/16
f 4/19/17 3/23/19 7/24/20 6/20/18
f 3/61/19 2/58/2 8/57/1 7/62/20
f 12/59/3 11/63/21 15/64/22 14/60/4
f 11/9/21 10/5/23 16/6/24 15/10/22
f 10/5/23 9/2/10 13/1/9 16/6/24
f 19/13/13 18/17/25 22/18/26 21/14/14
f 18/17/25 17/21/27 23/22/28 22/18/26
f 17/69/27 20/66/6 24/65/5 23/70/28
f 27/67/7 26/71/29 31/72/30 30/68/8
f 26/11/29 25/7/31 32/8/32 31/12/30
f 25/7/31 28/4/12 29/3/11 32/8/32
s off
f 25/25/33 26/26/34 27/27/35 20/28/36 17/29/37 18/30/38 19/31/39 5/32/40 6/33/41 7/34/42 8/35/43 14/36/44 15/37/45 16/38/46 13/39/47 28/40/48
f 29/41/49 9/42/50 10/43/51 11/44/52 12/45/53 2/46/54 3/47/55 4/48/56 1/49/57 21/50/58 22/51/59 23/52/60 24/53/61 30/54/62 31/55/63 32/56/64
