# This file uses centimeters as units for non-parametric coordinates.

mtllib Panel 2.mtl
g default
v -0.750000 -0.050000 0.250025
v -0.500025 -0.050000 0.500000
v -0.625013 -0.050000 0.466510
v -0.716510 -0.050000 0.375013
v -0.750000 0.050000 0.250025
v -0.716510 0.050000 0.375013
v -0.625013 0.050000 0.466510
v -0.500025 0.050000 0.500000
v 0.750000 -0.050000 0.250025
v 0.716510 -0.050000 0.375013
v 0.625013 -0.050000 0.466510
v 0.500025 -0.050000 0.500000
v 0.750000 0.050000 0.250025
v 0.500025 0.050000 0.500000
v 0.625013 0.050000 0.466510
v 0.716510 0.050000 0.375013
v -0.625013 0.050000 -0.466510
v -0.716510 0.050000 -0.375013
v -0.750000 0.050000 -0.250025
v -0.500025 0.050000 -0.500000
v -0.750000 -0.050000 -0.250025
v -0.716510 -0.050000 -0.375013
v -0.625013 -0.050000 -0.466510
v -0.500025 -0.050000 -0.500000
v 0.716510 0.050000 -0.375013
v 0.625013 0.050000 -0.466510
v 0.500025 0.050000 -0.500000
v 0.750000 0.050000 -0.250025
v 0.750000 -0.050000 -0.250025
v 0.500025 -0.050000 -0.500000
v 0.625013 -0.050000 -0.466510
v 0.716510 -0.050000 -0.375013
vt 0.998008 0.304295
vt 0.955799 0.304295
vt 0.955799 0.093227
vt 0.998008 0.093227
vt 0.955799 0.357051
vt 0.998008 0.357051
vt 0.998008 0.040471
vt 0.955799 0.040471
vt 0.955799 0.395671
vt 0.998008 0.395671
vt 0.998008 0.001851
vt 0.955799 0.001851
vt 0.949663 0.835912
vt 0.907454 0.835912
vt 0.907454 0.624845
vt 0.949663 0.624845
vt 0.949663 0.888668
vt 0.907454 0.888668
vt 0.907454 0.572088
vt 0.949663 0.572088
vt 0.949663 0.927288
vt 0.907454 0.927288
vt 0.907454 0.533468
vt 0.949663 0.533468
vt 0.371328 0.015987
vt 0.409948 0.054607
vt 0.424084 0.107363
vt 0.424084 0.529477
vt 0.409948 0.582233
vt 0.371328 0.620853
vt 0.318572 0.634989
vt 0.107505 0.634989
vt 0.054748 0.620853
vt 0.016128 0.582233
vt 0.001992 0.529477
vt 0.001992 0.107363
vt 0.016128 0.054607
vt 0.054748 0.015987
vt 0.107505 0.001851
vt 0.318572 0.001851
vt 0.536469 0.001851
vt 0.747536 0.001851
vt 0.800292 0.015987
vt 0.838913 0.054607
vt 0.853049 0.107363
vt 0.853049 0.529477
vt 0.838913 0.582233
vt 0.800292 0.620853
vt 0.747536 0.634989
vt 0.536469 0.634989
vt 0.483713 0.620853
vt 0.445092 0.582233
vt 0.430956 0.529477
vt 0.430956 0.107363
vt 0.445092 0.054607
vt 0.483713 0.015987
vt 0.901935 0.476720
vt 0.859726 0.476720
vt 0.859726 0.054607
vt 0.901935 0.054607
vt 0.859726 0.529477
vt 0.901935 0.529477
vt 0.859726 0.001851
vt 0.901935 0.001851
vt 0.950659 0.476720
vt 0.908450 0.476720
vt 0.908450 0.054607
vt 0.950659 0.054607
vt 0.908450 0.529477
vt 0.950659 0.529477
vt 0.908450 0.001851
vt 0.950659 0.001851
vn -0.029755 0.000000 0.999557
vn -0.029755 0.000000 0.999557
vn 0.029755 0.000000 0.999557
vn 0.029755 0.000000 0.999557
vn -0.029755 0.000000 -0.999557
vn -0.029755 0.000000 -0.999557
vn 0.029755 0.000000 -0.999557
vn 0.029755 0.000000 -0.999557
vn 0.998568 0.000000 0.053505
vn 0.998568 0.000000 0.053505
vn 0.998568 0.000000 -0.053505
vn 0.998568 0.000000 -0.053505
vn -0.998568 0.000000 -0.053505
vn -0.998568 0.000000 -0.053505
vn -0.998568 0.000000 0.053505
vn -0.998568 0.000000 0.053505
vn -0.866025 0.000000 0.500000
vn -0.866025 0.000000 0.500000
vn -0.707107 0.000000 0.707107
vn -0.707107 0.000000 0.707107
vn -0.258819 0.000000 0.965926
vn -0.258819 0.000000 0.965926
vn 0.258819 0.000000 0.965926
vn 0.258819 0.000000 0.965926
vn 0.707107 0.000000 0.707107
vn 0.866025 0.000000 0.500000
vn 0.866025 0.000000 0.500000
vn 0.707107 0.000000 0.707107
vn -0.866025 0.000000 -0.500000
vn -0.866025 0.000000 -0.500000
vn -0.707107 0.000000 -0.707107
vn -0.707107 0.000000 -0.707107
vn -0.258819 0.000000 -0.965926
vn -0.258819 0.000000 -0.965926
vn 0.258819 0.000000 -0.965926
vn 0.258819 0.000000 -0.965926
vn 0.707107 0.000000 -0.707107
vn 0.866025 0.000000 -0.500000
vn 0.866025 0.000000 -0.500000
vn 0.707107 0.000000 -0.707107
vn 0.000000 1.000000 0.000000
vn 0.000000 1.000000 0.000000
vn 0.000000 1.000000 0.000000
vn 0.000000 1.000000 0.000000
vn 0.000000 1.000000 0.000000
vn 0.000000 1.000000 0.000000
vn 0.000000 1.000000 0.000000
vn 0.000000 1.000000 0.000000
vn 0.000000 1.000000 0.000000
vn 0.000000 1.000000 0.000000
vn 0.000000 1.000000 0.000000
vn 0.000000 1.000000 0.000000
vn 0.000000 1.000000 0.000000
vn 0.000000 1.000000 0.000000
vn 0.000000 1.000000 0.000000
vn 0.000000 1.000000 0.000000
vn 0.000000 -1.000000 -0.000000
vn 0.000000 -1.000000 -0.000000
vn 0.000000 -1.000000 -0.000000
vn 0.000000 -1.000000 -0.000000
vn 0.000000 -1.000000 -0.000000
vn 0.000000 -1.000000 -0.000000
vn 0.000000 -1.000000 -0.000000
vn 0.000000 -1.000000 -0.000000
vn 0.000000 -1.000000 -0.000000
vn 0.000000 -1.000000 -0.000000
vn 0.000000 -1.000000 -0.000000
vn 0.000000 -1.000000 -0.000000
vn 0.000000 -1.000000 -0.000000
vn 0.000000 -1.000000 -0.000000
vn 0.000000 -1.000000 -0.000000
vn 0.000000 -1.000000 -0.000000
s 1
g pCube1
usemtl initialShadingGroup
f 8/57/1 2/58/2 12/59/3 14/60/4
s 2
f 24/65/5 20/66/6 27/67/7 30/68/8
s 3
f 13/1/9 9/2/10 29/3/11 28/4/12
s 4
f 19/13/13 21/14/14 1/15/15 5/16/16
f 1/15/15 4/19/17 6/20/18 5/16/16
f 4/19/17 3/23/19 7/24/20 6/20/18
s 1
f 3/61/21 2/58/2 8/57/1 7/62/22
f 12/59/3 11/63/23 15/64/24 14/60/4
s 3
f 11/9/25 10/5/26 16/6/27 15/10/28
f 10/5/26 9/2/10 13/1/9 16/6/27
s 4
f 19/13/13 18/17/29 22/18/30 21/14/14
f 18/17/29 17/21/31 23/22/32 22/18/30
s 2
f 17/69/33 20/66/6 24/65/5 23/70/34
f 27/67/7 26/71/35 31/72/36 30/68/8
s 3
f 26/11/37 25/7/38 32/8/39 31/12/40
f 25/7/38 28/4/12 29/3/11 32/8/39
s off
f 25/25/41 26/26/42 27/27/43 20/28/44 17/29/45 18/30/46 19/31/47 5/32/48 6/33/49 7/34/50 8/35/51 14/36/52 15/37/53 16/38/54 13/39/55 28/40/56
f 29/41/57 9/42/58 10/43/59 11/44/60 12/45/61 2/46/62 3/47/63 4/48/64 1/49/65 21/50/66 22/51/67 23/52/68 24/53/69 30/54/70 31/55/71 32/56/72
